<svg width="150" height="42" viewBox="0 0 150 42" fill="none" xmlns="http://www.w3.org/2000/svg">
<path fill-rule="evenodd" clip-rule="evenodd" d="M108.75 9.35234C108.235 10.5073 108.306 10.8675 109.235 11.8166C110.668 13.2806 112.869 12.7938 113.332 10.9111C113.759 9.17412 112.763 8 110.863 8C109.751 8 109.194 8.35644 108.75 9.35234ZM92.709 18.108V27.684H94.7923H96.8757V25.1772V22.6699L99.3673 25.1772C101.628 27.451 102.088 27.684 104.315 27.684C105.666 27.684 106.771 27.5116 106.771 27.3004C106.771 27.0892 105.44 25.5427 103.813 23.8626L100.854 20.8084L103.682 17.7292L106.511 14.65L103.907 14.4771C101.432 14.3127 101.208 14.4122 99.409 16.4721C98.3673 17.6643 97.3715 18.64 97.1955 18.64C97.0194 18.64 96.8757 16.3657 96.8757 13.586V8.532H94.7923H92.709V18.108ZM42.709 18.64V27.684H44.7923H46.8757V25.024V22.364H49.7569C53.4506 22.364 55.9653 21.2792 56.9976 19.2401C58.7132 15.8513 57.496 11.6692 54.41 10.352C53.2991 9.87795 50.7861 9.596 47.6736 9.596H42.709V18.64ZM53.1053 14.8777C54.2376 17.0382 52.4866 18.64 48.9933 18.64H46.8757V16.246V13.852H49.722C51.9996 13.852 52.6757 14.0568 53.1053 14.8777ZM62.4345 14.716C60.4283 16.0343 59.3757 18.208 59.3757 21.034C59.3757 25.7512 62.3871 28.6262 66.697 28.024C67.9699 27.8463 70.1246 27.7085 71.485 27.7186L73.959 27.7367V21.034V14.3313L71.485 14.3696C70.1246 14.3909 67.8392 14.2755 66.4069 14.1127C64.4699 13.893 63.4522 14.0478 62.4345 14.716ZM79.9486 14.832C76.9147 16.7264 75.6996 19.6194 76.5621 22.8917C77.7006 27.2116 82.96 29.5412 86.8887 27.4664C88.8053 26.4535 90.3439 24.2999 89.9324 23.2046C89.4429 21.9017 86.8517 21.9538 85.5725 23.2923C84.9418 23.952 84.0887 24.492 83.6772 24.492C82.2684 24.492 80.5996 22.6172 80.5996 21.034C80.5996 19.4508 82.2684 17.576 83.6772 17.576C84.0887 17.576 84.9418 18.1346 85.5725 18.8177C86.5439 19.8695 86.9788 19.9892 88.4121 19.6008C90.2923 19.0906 90.5001 18.3894 89.2918 16.6274C87.4184 13.8946 82.8538 13.0178 79.9486 14.832ZM134.534 14.8926C132.195 16.3492 131.077 18.3357 131.077 21.034C131.077 25.5257 134.343 28.416 139.019 28.0617C141.458 27.8766 142.069 27.5914 143.544 25.947C145.772 23.4642 146.247 20.9191 144.976 18.2713C143.027 14.21 138.159 12.6348 134.534 14.8926ZM108.855 21.034V27.684H110.938H113.021V21.034V14.384H110.938H108.855V21.034ZM115.259 15.049C115.405 15.415 116.622 18.3176 117.961 21.5L120.398 27.2861L119.331 29.9072L118.264 32.5289L120.695 32.3672L123.126 32.206L126.885 23.295L130.642 14.384H128.313H125.983L124.366 18.1234L122.749 21.8629L121.22 18.1234L119.692 14.384H117.343C115.669 14.384 115.07 14.575 115.259 15.049ZM68.7507 18.64C70.8022 20.7355 69.3168 24.492 66.4366 24.492C64.9783 24.492 63.5423 22.7178 63.5423 20.9154C63.5423 19.4194 65.2673 17.576 66.6673 17.576C67.2402 17.576 68.1778 18.0548 68.7507 18.64ZM140.588 18.9778C141.181 19.7487 141.667 20.6738 141.667 21.034C141.667 22.2645 139.514 24.492 138.325 24.492C136.796 24.492 135.287 22.7742 135.287 21.034C135.287 19.2938 136.796 17.576 138.325 17.576C138.983 17.576 139.988 18.1979 140.588 18.9778Z" fill="black"/>
<path d="M146.562 14C147.944 14 149.063 12.8812 149.063 11.5C149.063 10.1187 147.944 9 146.562 9C145.181 9 144.062 10.1187 144.062 11.5C144.062 12.8812 145.181 14 146.562 14ZM146.562 13.3813C145.522 13.3813 144.681 12.5375 144.681 11.5C144.681 10.4625 145.522 9.61875 146.562 9.61875C147.6 9.61875 148.441 10.4625 148.441 11.5C148.441 12.5406 147.6 13.3813 146.562 13.3813ZM145.678 12.625H146.216V11.8469H146.678L147.066 12.625H147.656L147.194 11.7344C147.406 11.6062 147.569 11.3781 147.569 11.0656C147.569 10.5688 147.166 10.3187 146.831 10.3187H145.678V12.625ZM146.216 11.45V10.7156H146.663C146.797 10.7156 146.988 10.8 146.988 11.0656C146.988 11.3219 146.803 11.45 146.653 11.45H146.216Z" fill="black"/>
<path fill-rule="evenodd" clip-rule="evenodd" d="M11.5885 3.24572C8.07917 5.03165 5.20834 6.62181 5.20834 6.78087C5.20834 6.93941 9.19271 9.09294 14.0625 11.5662L22.9167 16.0632V20.7203V25.378L20.4479 26.6591L17.9797 27.9406L13.4167 25.6004L8.85417 23.2596V27.7869C8.85417 30.2766 8.72761 32.3142 8.57292 32.3142C8.41823 32.3142 7.36355 31.8306 6.22917 31.2396L4.16667 30.1644V23.2596C4.16667 18.9408 4.3646 16.3542 4.69533 16.3542C4.98647 16.3542 8.03334 17.7922 11.4662 19.5505L17.7083 22.7462V20.6171V18.4881L8.85417 13.9602L0 9.43237V20.8693V32.3068L6.77084 35.7722L13.5417 39.2377V34.7119C13.5417 32.2227 13.7172 30.1963 13.9323 30.2086C14.1474 30.2208 15.1385 30.6746 16.1354 31.2162L17.9479 32.202L22.5156 29.859L27.0833 27.5156V20.7214V13.9278L20.3125 10.5022C16.5886 8.6184 13.5417 6.93409 13.5417 6.76013C13.5417 6.32016 17.0552 4.65021 17.9812 4.65021C18.3979 4.65021 21.6713 6.14193 25.2552 7.9651L31.7708 11.2805V20.7294V30.1788L25 33.6442L18.2292 37.1097V39.2371V41.3641L27.0833 36.8362L35.9375 32.3084V20.7331V9.15784L26.9531 4.57892L17.9688 0L11.5885 3.24572Z" fill="#F7860B"/>
</svg>
